Coordinates
version=1
nRows=6
nColumns=63
inDegrees=yes

Units are S.I. units (second, meters, Newtons, ...)
If the header above contains a line with 'inDegrees', this indicates whether rotational values are in degrees (yes) or radians (no).

endheader
time	pelvis_tilt	pelvis_list	pelvis_rotation	pelvis_tx	pelvis_ty	pelvis_tz	hip_flexion_r	hip_adduction_r	hip_rotation_r	knee_angle_r	knee_angle_r_beta	ankle_angle_r	subtalar_angle_r	mtp_angle_r	hip_flexion_l	hip_adduction_l	hip_rotation_l	knee_angle_l	knee_angle_l_beta	ankle_angle_l	subtalar_angle_l	mtp_angle_l	L5_S1_Flex_Ext	L5_S1_Lat_Bending	L5_S1_axial_rotation	L4_L5_Flex_Ext	L4_L5_Lat_Bending	L4_L5_axial_rotation	L3_L4_Flex_Ext	L3_L4_Lat_Bending	L3_L4_axial_rotation	L2_L3_Flex_Ext	L2_L3_Lat_Bending	L2_L3_axial_rotation	L1_L2_Flex_Ext	L1_L2_Lat_Bending	L1_L2_axial_rotation	L1_T12_Flex_Ext	L1_T12_Lat_Bending	L1_T12_axial_rotation	Abs_r3	Abs_r2	Abs_r1	Abs_t1	Abs_t2	neck_flexion	neck_bending	neck_rotation	arm_flex_r	arm_add_r	arm_rot_r	elbow_flex_r	pro_sup_r	wrist_flex_r	wrist_dev_r	arm_flex_l	arm_add_l	arm_rot_l	elbow_flex_l	pro_sup_l	wrist_flex_l	wrist_dev_l
      7.50000000	    -40.31447342	      5.94300274	      2.65118600	     -0.15377499	      1.01199971	      0.03959501	     75.96756224	     -6.88259747	      3.00187307	     43.68078447	      0.76237351	     -2.64644067	    -13.93800405	      0.00000000	    114.54709861	     -6.09890617	     -3.32096774	    116.69995627	      2.03679847	      2.67073607	    -18.60503482	      0.00000000	     -0.05105820	     -0.90622865	     -0.53548371	     -0.09482019	     -1.20528411	     -0.56895144	     -0.08388352	     -2.20340434	     -0.56895144	     -0.05835442	     -2.20340434	     -0.46854825	     -0.04741265	     -1.84798147	     -0.43508052	     -0.02917466	     -1.40374818	     -0.40161278	     -0.36470364	    -10.25143975	     -2.97819976	      0.00000000	      0.00000000	     -0.00000000	      0.00000000	      0.00000000	     69.33759072	     -8.62318798	     26.62733032	     32.69897615	     51.57700538	      0.00000000	      5.00000014	     69.71841445	    -13.03500937	     30.16170342	     36.72215184	     57.47058081	      0.00000000	      5.00000014
      7.50800000	    -40.31730544	      5.96684231	      2.88594164	     -0.15378836	      1.01182110	      0.03919006	     75.46942909	     -7.06925130	      3.15605305	     43.88689332	      0.76597079	     -2.30485557	    -14.08477423	      0.00000000	    115.32325923	     -5.74928285	     -3.42931326	    116.51708089	      2.03360670	      3.36919711	    -18.71474637	      0.00000000	     -0.04935304	     -0.91443241	     -0.58174698	     -0.09165352	     -1.21619511	     -0.61810617	     -0.08108210	     -2.22335097	     -0.61810617	     -0.05640558	     -2.22335097	     -0.50902861	     -0.04582923	     -1.86471058	     -0.47266942	     -0.02820032	     -1.41645581	     -0.43631024	     -0.35252380	    -10.34424236	     -3.23550219	      0.00000000	      0.00000000	     -0.00000000	      0.00000000	      0.00000000	     69.25537298	     -8.61676165	     26.41485789	     32.72777242	     51.57484799	      0.00000000	      5.00000014	     69.69624494	    -13.04498124	     30.26098198	     36.76531152	     57.53087498	      0.00000000	      5.00000014
      7.51700000	    -40.33094877	      6.17842186	      3.08596121	     -0.15384143	      1.01175455	      0.03910005	     75.12144856	     -7.33949646	      3.28922343	     44.24250387	      0.77217736	     -2.16337465	    -14.19861428	      0.00000000	    115.96271816	     -5.56177415	     -3.70229181	    116.20017621	      2.02807567	      4.19380118	    -18.60802535	      0.00000000	     -0.05074853	     -0.94853658	     -0.62316048	     -0.09424510	     -1.26155366	     -0.66210801	     -0.08337476	     -2.30627185	     -0.66210801	     -0.05800050	     -2.30627185	     -0.54526542	     -0.04712509	     -1.93425580	     -0.50631789	     -0.02899771	     -1.46928317	     -0.46737036	     -0.36249170	    -10.73003555	     -3.46583163	      0.00000000	      0.00000000	     -0.00000000	      0.00000000	      0.00000000	     68.86980708	     -8.23281641	     24.50623267	     32.90074767	     51.67138186	      0.00000000	      5.00000014	     69.79030898	    -13.17605277	     30.50105466	     36.88531620	     58.18104758	      0.00000000	      5.00000014
      7.52500000	    -40.33329188	      6.24562718	      3.13280470	     -0.15390659	      1.01154406	      0.03896233	     74.81343803	     -7.43806623	      3.37928681	     44.72818453	      0.78065409	     -1.72661700	    -13.89699218	      0.00000000	    116.60586338	     -5.43467604	     -3.78705377	    115.86247328	      2.02218164	      5.05907059	    -18.50098992	      0.00000000	     -0.05016681	     -0.96093279	     -0.63218185	     -0.09316478	     -1.27804060	     -0.67169322	     -0.08241905	     -2.33641197	     -0.67169322	     -0.05733564	     -2.33641197	     -0.55315912	     -0.04658490	     -1.95953414	     -0.51364776	     -0.02866531	     -1.48848488	     -0.47413639	     -0.35833649	    -10.87026386	     -3.51600581	      0.00000000	      0.00000000	     -0.00000000	      0.00000000	      0.00000000	     68.79414045	     -8.21733577	     24.34235010	     32.92180577	     51.52500885	      0.00000000	      5.00000014	     69.76783539	    -13.17792571	     30.47091971	     36.99876106	     57.89546852	      0.00000000	      5.00000014
      7.53300000	    -40.31304464	      6.28308339	      3.09910906	     -0.15397968	      1.01132752	      0.03895145	     74.59793308	     -7.45059581	      3.45195034	     45.42917945	      0.79288876	     -1.24221855	    -13.57458607	      0.00000000	    117.16426835	     -5.37108859	     -3.83135841	    115.44374123	      2.01487339	      5.99816873	    -18.25818805	      0.00000000	     -0.05361226	     -0.97011070	     -0.62789819	     -0.09956332	     -1.29024723	     -0.66714183	     -0.08807958	     -2.35872716	     -0.66714183	     -0.06127345	     -2.35872716	     -0.54941092	     -0.04978434	     -1.97824974	     -0.51016728	     -0.03063404	     -1.50270148	     -0.47092364	     -0.38294699	    -10.97408627	     -3.49218137	      0.00000000	      0.00000000	     -0.00000000	      0.00000000	      0.00000000	     68.75832488	     -8.18107298	     24.15258362	     32.92308126	     51.42721777	      0.00000000	      5.00000014	     69.76653516	    -13.16883851	     30.45125460	     37.10982808	     57.73033906	      0.00000000	      5.00000014
      7.54200000	    -40.43396477	      6.61099132	      3.23613457	     -0.15446103	      1.01146651	      0.03899063	     74.66188623	     -7.58932533	      3.92762625	     46.10958254	      0.80476403	     -2.75218324	    -15.12329977	      0.00000000	    117.74049673	     -5.29426316	     -4.26325809	    114.68956270	      2.00171049	      5.48218163	    -18.59021860	      0.00000000	     -0.05179620	     -1.02038716	     -0.64621527	     -0.09619072	     -1.35711492	     -0.68660372	     -0.08509597	     -2.48096934	     -0.68660372	     -0.05919787	     -2.48096934	     -0.56543836	     -0.04809795	     -2.08077350	     -0.52504990	     -0.02959635	     -1.58057971	     -0.48466145	     -0.36997505	    -11.54282363	     -3.59405545	      0.00000000	      0.00000000	     -0.00000000	      0.00000000	      0.00000000	     68.49287305	     -7.90875672	     22.60466297	     33.11230989	     51.46479266	      0.00000000	      5.00000014	     69.86807517	    -13.22153386	     30.48046954	     37.35301178	     58.13523602	      0.00000000	      5.00000014
